<svg width="175" height="192" viewBox="0 0 175 192" fill="none" xmlns="http://www.w3.org/2000/svg">
<path d="M89.4506 17.0019H86.1829C85.9187 17.0019 85.7001 16.9245 85.7137 16.7805C85.7201 16.6357 86.0253 16.0864 86.0253 16.0864C86.0863 15.9415 86.2339 15.8641 86.4944 15.8641H89.139C89.3996 15.8641 89.5089 15.9579 89.6082 16.0864C89.6082 16.0864 89.9334 16.6676 89.9234 16.7805C89.9106 16.8962 89.7111 17.0019 89.4506 17.0019ZM96.2739 13.4445C95.792 12.8496 95.3 12.4224 94.0985 12.4224H81.8247C80.6231 12.4224 79.9381 12.7795 79.6493 13.4445C79.6493 13.4445 78.2482 15.9962 78.1999 16.6676C78.1516 17.3399 79.1701 17.6897 80.3753 17.6897H95.5506C96.7494 17.6897 97.6777 17.195 97.7233 16.6676C97.7743 16.141 96.2739 13.4445 96.2739 13.4445Z" fill="#393939"/>
<path d="M93.7841 3.72923H86.8488V2.95762H93.7841V3.72923ZM93.7841 5.37812H86.8488V4.61016H93.7841V5.37812ZM93.7841 7.02974H86.8488V6.26178H93.7841V7.02974ZM93.7841 8.67863H86.8488H82.1854V7.91066H86.8488H93.7841V8.67863ZM82.1116 2.95489H85.8175V6.99422H82.1116V2.95489ZM94.0993 0.306641H81.8256C80.6203 0.306641 79.6465 1.28049 79.6465 2.48208V9.34365C79.6465 10.5452 80.6203 11.5191 81.8256 11.5191H94.0993C95.3009 11.5191 96.2748 10.5452 96.2748 9.34365V2.48208C96.2748 1.28049 95.3009 0.306641 94.0993 0.306641Z" fill="#393939"/>
<path d="M89.4506 107.943H86.1829C85.9187 107.943 85.7001 107.865 85.7137 107.721C85.7201 107.576 86.0253 107.026 86.0253 107.026C86.0863 106.882 86.2339 106.805 86.4944 106.805H89.139C89.3996 106.805 89.5089 106.898 89.6082 107.026C89.6082 107.026 89.9334 107.608 89.9234 107.721C89.9106 107.836 89.7111 107.943 89.4506 107.943ZM96.2739 104.384C95.792 103.791 95.3 103.363 94.0985 103.363H81.8247C80.6231 103.363 79.9381 103.719 79.6493 104.384C79.6493 104.384 78.2482 106.936 78.1999 107.608C78.1516 108.28 79.1701 108.631 80.3753 108.631H95.5506C96.7494 108.631 97.6777 108.135 97.7233 107.608C97.7743 107.081 96.2739 104.384 96.2739 104.384Z" fill="#393939"/>
<path d="M93.7841 94.6696H86.8488V93.898H93.7841V94.6696ZM93.7841 96.3176H86.8488V95.5496H93.7841V96.3176ZM93.7841 97.9701H86.8488V97.2012H93.7841V97.9701ZM93.7841 99.6181H86.8488H82.1854V98.8501H86.8488H93.7841V99.6181ZM82.1116 93.8943H85.8175V97.9346H82.1116V93.8943ZM94.0993 91.2461H81.8256C80.6203 91.2461 79.6465 92.2199 79.6465 93.4224V100.284C79.6465 101.486 80.6203 102.459 81.8256 102.459H94.0993C95.3009 102.459 96.2748 101.486 96.2748 100.284V93.4224C96.2748 92.2199 95.3009 91.2461 94.0993 91.2461Z" fill="#393939"/>
<path d="M89.4506 190.821H86.1829C85.9187 190.821 85.7001 190.745 85.7137 190.6C85.7201 190.455 86.0253 189.906 86.0253 189.906C86.0863 189.761 86.2339 189.685 86.4944 189.685H89.139C89.3996 189.685 89.5089 189.778 89.6082 189.906C89.6082 189.906 89.9334 190.488 89.9234 190.6C89.9106 190.716 89.7111 190.821 89.4506 190.821ZM96.2739 187.264C95.792 186.67 95.3 186.242 94.0985 186.242H81.8247C80.6231 186.242 79.9381 186.599 79.6493 187.264C79.6493 187.264 78.2482 189.816 78.1999 190.488C78.1516 191.159 79.1701 191.509 80.3753 191.509H95.5506C96.7494 191.509 97.6777 191.015 97.7233 190.488C97.7743 189.961 96.2739 187.264 96.2739 187.264Z" fill="#393939"/>
<path d="M93.7841 177.546H86.8488V176.774H93.7841V177.546ZM93.7841 179.198H86.8488V178.43H93.7841V179.198ZM93.7841 180.849H86.8488V180.081H93.7841V180.849ZM93.7841 182.498H86.8488H82.1854V181.73H86.8488H93.7841V182.498ZM82.1116 176.778H85.8175V180.817H82.1116V176.778ZM94.0993 174.126H81.8256C80.6203 174.126 79.6465 175.1 79.6465 176.302V183.163C79.6465 184.362 80.6203 185.339 81.8256 185.339H94.0993C95.3009 185.339 96.2748 184.362 96.2748 183.163V176.302C96.2748 175.1 95.3009 174.126 94.0993 174.126Z" fill="#393939"/>
<path d="M11.2524 61.6835H7.98465C7.72046 61.6835 7.50274 61.6061 7.51549 61.4622C7.52187 61.3173 7.82705 60.768 7.82705 60.768C7.88808 60.6231 8.03566 60.5457 8.29621 60.5457H10.9408C11.2014 60.5457 11.3107 60.6395 11.41 60.768C11.41 60.768 11.7352 61.3492 11.7252 61.4622C11.7124 61.5779 11.5129 61.6835 11.2524 61.6835ZM18.0757 58.1261C17.5938 57.5313 17.1018 57.104 15.9002 57.104H3.62648C2.42488 57.104 1.73982 57.4611 1.45103 58.1261C1.45103 58.1261 0.0499345 60.6778 0.00164923 61.3492C-0.046632 62.0215 0.971854 62.3713 2.17709 62.3713H17.3523C18.5512 62.3713 19.4804 61.8767 19.525 61.3492C19.5761 60.8227 18.0757 58.1261 18.0757 58.1261H18.0757Z" fill="#393939"/>
<path d="M15.5832 48.4107H8.64876V47.6391H15.5832V48.4107ZM15.5832 50.0587H8.64876V49.2908H15.5832V50.0587ZM15.5832 51.7112H8.64876V50.9433H15.5832V51.7112ZM15.5832 53.3592H8.65149H3.98814V52.5913H8.65149H15.5832V53.3592ZM3.91435 47.6391H7.62025V51.6785H3.91435V47.6391ZM15.902 44.9882H3.6283C2.42306 44.9882 1.44922 45.962 1.44922 47.1636V54.0252C1.44922 55.2268 2.42306 56.2006 3.6283 56.2006H15.902C17.1036 56.2006 18.0775 55.2268 18.0775 54.0252V47.1636C18.0775 45.962 17.1036 44.9882 15.902 44.9882Z" fill="#393939"/>
<path d="M166.352 61.6835H163.083C162.82 61.6835 162.601 61.6061 162.614 61.4622C162.624 61.3173 162.927 60.768 162.927 60.768C162.988 60.6231 163.135 60.5457 163.396 60.5457H166.04C166.301 60.5457 166.41 60.6395 166.509 60.768C166.509 60.768 166.834 61.3492 166.825 61.4622C166.812 61.5779 166.612 61.6835 166.352 61.6835ZM173.175 58.1261C172.692 57.5313 172.201 57.104 170.999 57.104H158.726C157.523 57.104 156.839 57.4611 156.55 58.1261C156.55 58.1261 155.149 60.6778 155.1 61.3492C155.053 62.0215 156.071 62.3713 157.277 62.3713H172.452C173.651 62.3713 174.579 61.8767 174.625 61.3492C174.676 60.8227 173.175 58.1261 173.175 58.1261Z" fill="#393939"/>
<path d="M170.684 48.4107H163.748V47.6391H170.684V48.4107ZM170.684 50.0587H163.748V49.2908H170.684V50.0587ZM170.684 51.7112H163.748V50.9433H170.684V51.7112ZM170.684 53.3592H163.748H159.085V52.5913H163.748H170.684V53.3592ZM159.014 47.6391H162.72V51.6785H159.014V47.6391ZM171.002 44.9882H158.725C157.523 44.9882 156.549 45.962 156.549 47.1636V54.0252C156.549 55.2268 157.523 56.2006 158.725 56.2006H171.002C172.203 56.2006 173.177 55.2268 173.177 54.0252V47.1636C173.177 45.962 172.203 44.9882 171.002 44.9882Z" fill="#393939"/>
<path d="M11.2524 143.687H7.98465C7.72046 143.687 7.50274 143.61 7.51549 143.466C7.52187 143.321 7.82705 142.771 7.82705 142.771C7.88808 142.627 8.03566 142.55 8.29621 142.55H10.9408C11.2014 142.55 11.3107 142.643 11.41 142.771C11.41 142.771 11.7352 143.353 11.7252 143.466C11.7124 143.581 11.5129 143.687 11.2524 143.687ZM18.0757 140.13C17.5938 139.535 17.1018 139.107 15.9002 139.107H3.62648C2.42488 139.107 1.73982 139.465 1.45103 140.13C1.45103 140.13 0.0499345 142.681 0.00164923 143.353C-0.046632 144.025 0.971854 144.375 2.17709 144.375H17.3523C18.5512 144.375 19.4804 143.88 19.525 143.353C19.5761 142.826 18.0757 140.13 18.0757 140.13H18.0757Z" fill="#393939"/>
<path d="M15.5832 130.412H8.64876V129.641H15.5832V130.412ZM15.5832 132.061H8.64876V131.293H15.5832V132.061ZM15.5832 133.713H8.64876V132.944H15.5832V133.713ZM15.5832 135.365H8.65149H3.98814V134.593H8.65149H15.5832V135.365ZM3.91435 129.641H7.62025V133.68H3.91435V129.641ZM15.902 126.993H3.6283C2.42306 126.993 1.44922 127.963 1.44922 129.165V136.03C1.44922 137.229 2.42306 138.205 3.6283 138.205H15.902C17.1036 138.205 18.0775 137.229 18.0775 136.03V129.165C18.0775 127.963 17.1036 126.993 15.902 126.993Z" fill="#393939"/>
<path d="M166.488 143.687H163.219C162.956 143.687 162.737 143.611 162.75 143.466C162.76 143.321 163.061 142.772 163.061 142.772C163.122 142.627 163.271 142.55 163.531 142.55H166.176C166.437 142.55 166.546 142.643 166.645 142.772C166.645 142.772 166.97 143.353 166.96 143.466C166.948 143.581 166.748 143.687 166.488 143.687ZM173.311 140.13C172.828 139.535 172.337 139.108 171.135 139.108H158.862C157.659 139.108 156.975 139.465 156.685 140.13C156.685 140.13 155.284 142.681 155.236 143.353C155.188 144.025 156.207 144.375 157.412 144.375H172.588C173.786 144.375 174.715 143.88 174.76 143.353C174.811 142.826 173.311 140.13 173.311 140.13Z" fill="#393939"/>
<path d="M170.819 130.412H163.883V129.641H170.819V130.412ZM170.819 132.061H163.883V131.293H170.819V132.061ZM170.819 133.713H163.883V132.944H170.819V133.713ZM170.819 135.365H163.886H159.223V134.593H163.886H170.819V135.365ZM159.149 129.641H162.855V133.68H159.149V129.641ZM171.137 126.993H158.863C157.658 126.993 156.685 127.963 156.685 129.165V136.03C156.685 137.229 157.658 138.205 158.863 138.205H171.137C172.338 138.205 173.312 137.229 173.312 136.03V129.165C173.312 127.963 172.338 126.993 171.137 126.993Z" fill="#393939"/>
<path fill-rule="evenodd" clip-rule="evenodd" d="M10.2522 124.934V67.0503H8.55225V124.934H10.2522Z" fill="#393939"/>
<path fill-rule="evenodd" clip-rule="evenodd" d="M166.334 124.934V64.3248H164.638V124.934H166.334Z" fill="#393939"/>
<path fill-rule="evenodd" clip-rule="evenodd" d="M87.3628 86.0306H89.06V25.4225H87.3628V86.0306Z" fill="#393939"/>
<path fill-rule="evenodd" clip-rule="evenodd" d="M103.072 16.0117L148.698 42.1079L149.543 40.6294L103.917 14.5332L103.072 16.0117Z" fill="#393939"/>
<path fill-rule="evenodd" clip-rule="evenodd" d="M20.1855 151.498L71.7284 180.975L72.5738 179.496L21.031 150.019L20.1855 151.498Z" fill="#393939"/>
<path fill-rule="evenodd" clip-rule="evenodd" d="M104.001 108.806L149.353 134.738L150.198 133.264L104.849 107.328L104.001 108.806Z" fill="#393939"/>
<path fill-rule="evenodd" clip-rule="evenodd" d="M102.316 180.072L103.165 181.547L153.887 152.385L153.037 150.913L102.316 180.072Z" fill="#393939"/>
<path fill-rule="evenodd" clip-rule="evenodd" d="M22.4165 136.444L23.2646 137.917L73.9839 108.758L73.1321 107.283L22.4165 136.444Z" fill="#393939"/>
<path fill-rule="evenodd" clip-rule="evenodd" d="M24.02 41.6999L24.8618 43.1748L71.9981 16.0729L71.1464 14.6007L24.02 41.6999Z" fill="#393939"/>
<path d="M79.0754 159.639C79.1583 160.97 77.6871 162.878 75.283 164.357C69.7906 167.731 62.4827 167.989 57.167 164.842C52.2623 161.943 51.498 157.675 57.597 153.925C59.9501 152.475 62.7295 151.71 64.7929 151.646L65.9207 154.484C64.4012 154.745 62.9263 155.063 61.2546 156.088C58.5226 157.768 58.1017 160.208 61.4669 162.198C64.4914 163.988 68.8131 163.917 72.0016 161.956C73.2678 161.178 74.2708 160.092 74.6043 158.855L79.0754 159.639Z" fill="#393939"/>
<path d="M91.1906 145.713C96.4097 148.802 95.0924 152.173 91.2963 154.506C86.7432 157.308 81.0668 157.768 76.0664 154.809L66.2131 148.978L70.2597 146.491L79.2867 151.829C81.945 153.4 84.8046 154.085 87.6396 152.343C90.0911 150.833 89.0953 149.357 86.3633 147.741L77.1177 142.272L81.167 139.784L91.1906 145.713V145.713Z" fill="#393939"/>
<path d="M99.6859 140.666L102.88 142.555C103.233 142.427 103.635 142.269 104.394 141.804C105.962 140.836 106.087 139.965 104.94 139.287C103.866 138.653 102.568 138.892 101.254 139.702L99.6859 140.666V140.666ZM93.1714 136.812L96.2697 138.644L97.6125 137.822C98.6473 137.182 99.0682 136.423 97.8247 135.687C96.7999 135.083 95.3277 135.369 94.3411 135.977C93.8337 136.289 93.5795 136.504 93.1714 136.812ZM85.5164 137.166C86.451 136.533 88.8105 134.965 90.7318 133.782C94.9578 131.182 98.5572 131.236 100.923 132.637C102.703 133.689 103.189 134.833 102.703 136.131L102.751 136.16C104.506 135.639 106.99 135.614 109.186 136.912C112.769 139.033 111.57 141.804 107.724 144.169C106.026 145.21 103.626 146.63 102.491 147.209L85.5164 137.166Z" fill="#393939"/>
<path d="M101.075 127.54L111.574 121.083L115.235 123.246L108.781 127.214L111.783 128.989L117.475 125.489L121.135 127.652L115.441 131.152L118.539 132.986L125.243 128.863L128.903 131.026L118.15 137.64L101.075 127.54Z" fill="#393939"/>
<path d="M52.3433 56.7662V41.417L38.8042 49.021L52.3433 56.7662Z" fill="#393939"/>
<path d="M37.6082 50.7089V114.156L52.3434 105.883V59.1392L37.6082 50.7089Z" fill="#393939"/>
<path d="M119.252 103.234L132.647 110.887V65.3154L119.252 72.8329V103.234Z" fill="#393939"/>
<path d="M104.328 33.6162V46.6962L119.253 55.2731V70.5868L132.648 62.9282L138.52 66.2806L150.067 59.798L104.328 33.6162Z" fill="#393939"/>
<path d="M140.504 67.4155L150.228 72.9716V61.9578L140.504 67.4155Z" fill="#393939"/>
</svg>
